<?xml version="1.0" encoding="iso-8859-1"?>
<!-- Generator: Adobe Illustrator 19.0.0, SVG Export Plug-In . SVG Version: 6.00 Build 0)  -->
<svg version="1.1" id="Layer_1" xmlns="http://www.w3.org/2000/svg" xmlns:xlink="http://www.w3.org/1999/xlink" x="0px" y="0px"
	 viewBox="0 0 392.482 392.482" style="enable-background:new 0 0 392.482 392.482;" xml:space="preserve" fill="#ff6c75">
<g>
	<g>
		<path d="M344.245,244.564v-34.521c0-6.012-4.849-10.925-10.925-10.925H207.453v-21.786h86.238c6.012,0,10.925-4.849,10.925-10.925
			V35.303c0-6.012-4.849-10.925-10.925-10.925H159.809L148.366,5.308c-1.939-3.297-5.495-5.301-9.374-5.301H98.912
			c-6.012,0-10.925,4.849-10.925,10.925v155.475c0,6.012,4.849,10.925,10.925,10.925h86.756v21.786H59.607
			c-6.012,0-10.925,4.848-10.925,10.925v34.521c-13.382,4.59-23.014,17.261-23.014,32.065c0,18.683,15.192,33.939,34.004,33.939
			c18.683,0,34.004-15.192,34.004-33.939c0-14.933-9.632-27.604-23.014-32.065v-23.661h115.135v23.661
			c-13.382,4.59-23.014,17.261-23.014,32.065c0,18.683,15.192,33.939,34.004,33.939c18.683,0,34.004-15.192,34.004-33.939
			c0-14.933-9.632-27.604-23.014-32.065v-23.661h114.489v23.661c-13.382,4.59-23.014,17.261-23.014,32.065
			c0,18.683,15.192,33.939,34.004,33.939c18.683,0,34.004-15.192,34.004-33.939C367.259,261.695,357.627,249.025,344.245,244.564z
			 M71.825,276.629c0,6.659-5.495,12.154-12.154,12.154c-6.659,0-12.154-5.43-12.154-12.154c-0.065-6.659,5.43-12.154,12.154-12.154
			C66.395,264.475,71.825,269.906,71.825,276.629z M109.708,155.417v-21.786h16.356c6.012,0,10.925-4.849,10.925-10.925
			c0-6.012-4.848-10.925-10.925-10.925h-16.356V89.994h43.572c6.012,0,10.925-4.849,10.925-10.925
			c0-6.012-4.849-10.925-10.925-10.925h-43.572V21.792h23.014l11.507,19.071c1.939,3.297,5.495,5.301,9.374,5.301h129.228v109.253
			H109.708z M208.746,276.629c0,6.723-5.43,12.154-12.154,12.154s-12.154-5.43-12.154-12.154c0-6.659,5.495-12.154,12.154-12.154
			C203.316,264.475,208.746,269.906,208.746,276.629z M332.867,288.782c-6.723,0-12.154-5.43-12.154-12.154
			c0-6.659,5.495-12.154,12.154-12.154c6.723,0,12.154,5.43,12.154,12.154C345.086,283.352,339.591,288.782,332.867,288.782z"/>
	</g>
</g>
<g>
	<g>
		<path d="M59.671,323.821c-32.194,0-58.44,25.212-59.669,57.406c-0.065,2.909,1.034,5.883,3.038,7.952
			c2.069,2.133,4.848,3.297,7.887,3.297h97.422c2.909,0,5.818-1.228,7.887-3.297c2.069-2.133,3.168-5.042,3.038-7.952
			C118.047,349.033,91.865,323.821,59.671,323.821z M23.922,370.754c5.172-14.739,19.135-25.083,35.685-25.083
			c16.485,0,30.448,10.343,35.685,25.083H23.922z"/>
	</g>
</g>
<g>
	<g>
		<path d="M196.593,323.821c-32.194,0-58.44,25.212-59.669,57.406c-0.065,2.909,1.034,5.883,3.038,7.952
			c2.069,2.133,4.849,3.297,7.887,3.297h97.422c2.909,0,5.818-1.228,7.887-3.297c2.069-2.133,3.168-5.042,3.038-7.952
			C254.968,349.033,228.787,323.821,196.593,323.821z M160.908,370.754c5.172-14.739,19.135-25.083,35.685-25.083
			c16.485,0,30.448,10.343,35.685,25.083H160.908z"/>
	</g>
</g>
<g>
	<g>
		<path d="M332.867,323.821c-32.194,0-58.44,25.212-59.669,57.406c-0.065,2.909,1.034,5.883,3.038,7.952
			c2.069,2.133,4.848,3.297,7.887,3.297h97.422c2.909,0,5.818-1.228,7.887-3.297c2.069-2.133,3.168-5.042,3.038-7.952
			C391.308,349.033,365.126,323.821,332.867,323.821z M297.247,370.754c5.172-14.739,19.135-25.083,35.685-25.083
			c16.485,0,30.448,10.343,35.685,25.083H297.247z"/>
	</g>
</g>
<g>
</g>
<g>
</g>
<g>
</g>
<g>
</g>
<g>
</g>
<g>
</g>
<g>
</g>
<g>
</g>
<g>
</g>
<g>
</g>
<g>
</g>
<g>
</g>
<g>
</g>
<g>
</g>
<g>
</g>
</svg>
