<?xml version="1.0" encoding="iso-8859-1"?>
<!-- Generator: Adobe Illustrator 19.0.0, SVG Export Plug-In . SVG Version: 6.00 Build 0)  -->
<svg version="1.1" id="Layer_1" xmlns="http://www.w3.org/2000/svg" xmlns:xlink="http://www.w3.org/1999/xlink" x="0px" y="0px"
	 viewBox="0 0 511.999 511.999" style="enable-background:new 0 0 511.999 511.999;" xml:space="preserve" fill="#ff6c75">
<g>
	<g>
		<path d="M416.804,123.784c-2.837-2.837-5.739-5.584-8.697-8.251l10.897-12.986l6.442,5.405l10.098-12.033L410.627,75.01
			l-10.098,12.033l6.442,5.405l-10.879,12.965c-37.89-29.747-83.917-46.534-132.583-48.102V39.797h8.378V24.088h-31.419v15.709
			h7.331v17.54c-47.835,1.685-93.088,18.078-130.538,47.031l-10.002-11.919l6.442-5.405L103.603,75.01L78.686,95.917l10.098,12.033
			l6.442-5.405l9.946,11.853c-3.4,3.021-6.733,6.14-9.977,9.384c-42.953,42.953-66.608,100.061-66.608,160.805
			c0,60.744,23.655,117.852,66.608,160.804c42.953,42.952,100.061,66.608,160.805,66.608c60.744,0,117.852-23.655,160.804-66.608
			c42.952-42.953,66.608-100.061,66.608-160.804S459.756,166.737,416.804,123.784z M256,496.291
			c-116.734,0-211.703-94.97-211.703-211.702c0-116.733,94.97-211.703,211.703-211.703c116.732,0,211.702,94.97,211.702,211.703
			C467.702,401.321,372.732,496.291,256,496.291z"/>
	</g>
</g>
<g>
	<g>
		<path d="M256,81.572c-111.944,0-203.017,91.073-203.017,203.017S144.056,487.605,256,487.605s203.017-91.073,203.017-203.017
			S367.943,81.572,256,81.572z M256,471.895c-103.282,0-187.307-84.025-187.307-187.307S152.718,97.281,256,97.281
			s187.307,84.025,187.307,187.307S359.281,471.895,256,471.895z"/>
	</g>
</g>
<g>
	<g>
		<path d="M368.782,156.731l-10.396,11.777c12.633,11.152,23.302,24.183,31.714,38.733l13.6-7.862
			C394.438,183.356,382.689,169.007,368.782,156.731z"/>
	</g>
</g>
<g>
	<g>
		<path d="M345.848,139.669c-9.536-5.923-19.688-10.914-30.176-14.833l-5.499,14.716c9.517,3.557,18.731,8.086,27.385,13.462
			c3.871,2.405,7.68,5.011,11.319,7.746l9.437-12.559C354.306,145.19,350.113,142.319,345.848,139.669z"/>
	</g>
</g>
<g>
	<g>
		<path d="M255.999,260.469c-13.299,0-24.118,10.82-24.118,24.118c0,10.421,6.643,19.316,15.917,22.68v124.217h15.709V307.503
			c9.633-3.164,16.61-12.238,16.61-22.916C280.117,271.289,269.298,260.469,255.999,260.469z M256,292.997
			c-4.636,0-8.409-3.772-8.409-8.409s3.771-8.409,8.409-8.409c4.636,0,8.409,3.772,8.409,8.409S260.636,292.997,256,292.997z"/>
	</g>
</g>
<g>
	<g>
		<path d="M412.285,216.808l-14.397,6.285c8.554,19.596,12.892,40.369,12.892,61.744c0,85.481-69.433,155.027-154.78,155.027h-8.202
			v15.709H256c94.008,0,170.49-76.592,170.49-170.737C426.489,261.285,421.71,238.397,412.285,216.808z"/>
	</g>
</g>
<g>
	<g>
		<rect x="247.8" y="114.155" width="15.709" height="32.466"/>
	</g>
</g>
<g>
	<g>
		<rect x="195.312" y="123.144" transform="matrix(0.9397 -0.342 0.342 0.9397 -35.4269 77.8892)" width="15.709" height="32.529"/>
	</g>
</g>
<g>
	<g>
		<rect x="148.82" y="149.977" transform="matrix(0.766 -0.6428 0.6428 0.766 -70.2034 139.61)" width="15.709" height="32.528"/>
	</g>
</g>
<g>
	<g>
		<rect x="114.343" y="191.077" transform="matrix(0.5 -0.866 0.866 0.5 -118.4638 209.4933)" width="15.709" height="32.528"/>
	</g>
</g>
<g>
	<g>
		
			<rect x="96.001" y="241.49" transform="matrix(0.1736 -0.9848 0.9848 0.1736 -168.014 315.2856)" width="15.709" height="32.528"/>
	</g>
</g>
<g>
	<g>
		<rect x="87.567" y="303.559" transform="matrix(0.9848 -0.1736 0.1736 0.9848 -52.4858 22.754)" width="32.528" height="15.709"/>
	</g>
</g>
<g>
	<g>
		<rect x="105.926" y="353.991" transform="matrix(0.866 -0.5 0.5 0.866 -164.5555 109.577)" width="32.528" height="15.709"/>
	</g>
</g>
<g>
	<g>
		
			<rect x="140.434" y="395.105" transform="matrix(0.6428 -0.766 0.766 0.6428 -252.7049 263.9639)" width="32.528" height="15.709"/>
	</g>
</g>
<g>
	<g>
		
			<rect x="186.903" y="421.917" transform="matrix(0.342 -0.9397 0.9397 0.342 -270.1722 473.7069)" width="32.529" height="15.709"/>
	</g>
</g>
<g>
	<g>
		<rect x="247.8" y="228.31" width="16.757" height="15.709"/>
	</g>
</g>
<g>
	<g>
		<rect x="223.712" y="228.31" width="16.757" height="15.709"/>
	</g>
</g>
<g>
	<g>
		<rect x="271.887" y="228.31" width="16.757" height="15.709"/>
	</g>
</g>
<g>
	<g>
		<rect x="223.712" width="64.932" height="15.709"/>
	</g>
</g>
<g>
	<g>
		<rect x="425.832" y="40.267" transform="matrix(0.6428 -0.766 0.766 0.6428 99.1429 358.2131)" width="15.709" height="65.056"/>
	</g>
</g>
<g>
	<g>
		<rect x="47.983" y="64.95" transform="matrix(0.7661 -0.6428 0.6428 0.7661 -27.9616 68.7836)" width="65.061" height="15.71"/>
	</g>
</g>
<g>
</g>
<g>
</g>
<g>
</g>
<g>
</g>
<g>
</g>
<g>
</g>
<g>
</g>
<g>
</g>
<g>
</g>
<g>
</g>
<g>
</g>
<g>
</g>
<g>
</g>
<g>
</g>
<g>
</g>
</svg>
